<svg id="Layer_1" data-name="Layer 1" xmlns="http://www.w3.org/2000/svg" viewBox="0 0 24.77 24.77"><defs><style>.cls-1{fill:#76cfa6;}.cls-2,.cls-3{fill:none;stroke-miterlimit:10;}.cls-2{stroke:#c6c6c6;stroke-width:0.79px;}.cls-3{stroke:#fff;stroke-width:0.79px;}.cls-4{fill:#fff;}</style></defs><title>Web_Icon</title><path id="Oval-1-Copy-7" class="cls-1" d="M12.5,24.89A12.39,12.39,0,1,0,.11,12.5,12.39,12.39,0,0,0,12.5,24.89Z" transform="translate(-0.11 -0.11)"/><path class="cls-2" d="M12.68,12.48" transform="translate(-0.11 -0.11)"/><path class="cls-2" d="M12.32,12.52" transform="translate(-0.11 -0.11)"/><path class="cls-3" d="M12.5,12.5" transform="translate(-0.11 -0.11)"/><path class="cls-4" d="M18,10.61a.65.65,0,0,0-.48-.18c-.57,0-1.13,0-1.69,0a.66.66,0,0,0-.72.72c0,.68,0,1.35,0,2v1.4c0,.88,0,2,0,2.66a.68.68,0,0,0,.18.51.64.64,0,0,0,.47.18h1.78a.7.7,0,0,0,.47-.18.66.66,0,0,0,.18-.49c0-1.84,0-4.33,0-6.17A.66.66,0,0,0,18,10.61Zm-.82,6.33H16.13c0-.69,0-1.59,0-2.35v-1.4c0-.58,0-1.16,0-1.75h1.08C17.21,13.13,17.21,15.25,17.21,16.94Z" transform="translate(-0.11 -0.11)"/><path class="cls-4" d="M5.06,9.9H19.91a.5.5,0,0,0,.3-.9L12.8,3.44a.5.5,0,0,0-.6,0L4.77,9a.5.5,0,0,0,.3.9ZM12.5,4.47,18.41,8.9H6.57Z" transform="translate(-0.11 -0.11)"/><path class="cls-4" d="M13.72,10.61a.63.63,0,0,0-.48-.18c-.57,0-1.13,0-1.69,0a.74.74,0,0,0-.53.19.72.72,0,0,0-.19.54c0,.67,0,1.33,0,2v1.44c0,.88,0,2,0,2.66a.68.68,0,0,0,.18.51.64.64,0,0,0,.47.18h1.78a.7.7,0,0,0,.47-.18.67.67,0,0,0,.18-.49c0-1.84,0-4.33,0-6.17A.66.66,0,0,0,13.72,10.61Zm-.82,6.33H11.83c0-.69,0-1.59,0-2.35V13.15c0-.57,0-1.14,0-1.72H12.9C12.9,13.13,12.9,15.25,12.9,16.94Z" transform="translate(-0.11 -0.11)"/><path class="cls-4" d="M19.94,18.66H5.06a.5.5,0,0,0,0,1H19.94a.5.5,0,0,0,0-1Z" transform="translate(-0.11 -0.11)"/><path class="cls-4" d="M6.8,17.76a.67.67,0,0,0,.49.18H9a.67.67,0,0,0,.49-.18.7.7,0,0,0,.19-.52c0-.71,0-1.82,0-2.71V13.26c0-.72,0-1.43,0-2.15a.68.68,0,0,0-.18-.49A.53.53,0,0,0,9,10.44H7.27a.64.64,0,0,0-.47.18.65.65,0,0,0-.18.48c0,1.85,0,4.33,0,6.17A.67.67,0,0,0,6.8,17.76Zm.82-6.32H8.7c0,.61,0,1.22,0,1.82v1.27c0,.76,0,1.7,0,2.41H7.62C7.62,15.25,7.62,13.13,7.62,11.44Z" transform="translate(-0.11 -0.11)"/></svg>